<?xml version="1.0" standalone="no"?>
<!DOCTYPE svg PUBLIC "-//W3C//DTD SVG 20010904//EN"
 "http://www.w3.org/TR/2001/REC-SVG-20010904/DTD/svg10.dtd">
<svg version="1.0" xmlns="http://www.w3.org/2000/svg"
 width="3464.000000pt" height="3464.000000pt" viewBox="0 0 3464.000000 3464.000000"
 preserveAspectRatio="xMidYMid meet">

<g transform="translate(0.000000,3464.000000) scale(0.100000,-0.100000)"
fill="#000000" stroke="none">
<path d="M25314 34415 c-542 -70 -1046 -285 -1479 -630 -134 -107 -345 -317
-447 -445 -345 -433 -537 -940 -542 -1435 0 -84 12 -295 32 -530 18 -214 51
-606 73 -870 84 -1007 199 -2272 334 -3675 30 -311 57 -584 60 -607 l6 -42
-303 147 c-1503 727 -2941 1490 -4426 2349 -195 112 -377 213 -404 224 -112
44 -303 63 -387 39 -32 -9 -44 -2 -385 217 -696 448 -1130 732 -1645 1075
-745 497 -692 457 -807 600 -436 546 -912 1018 -1379 1368 -93 70 -224 164
-290 207 -124 83 -353 223 -364 223 -11 0 -188 -165 -262 -245 -41 -44 -100
-112 -132 -151 l-58 -72 -92 -7 c-119 -9 -272 -31 -353 -51 -63 -16 -66 -16
-143 9 -111 37 -308 75 -431 83 -171 10 -385 -24 -556 -91 -131 -51 -351 -165
-462 -238 -541 -362 -800 -838 -886 -1632 -24 -220 -35 -478 -46 -1055 -24
-1278 57 -2652 271 -4570 17 -151 31 -300 30 -330 -1 -99 -258 -1813 -274
-1826 -1 -1 -59 -18 -129 -37 -273 -77 -519 -189 -738 -335 -215 -143 -482
-381 -642 -574 l-83 -99 -8 38 c-8 41 -101 1050 -247 2673 l-90 1005 -110 485
c-234 1027 -426 1825 -630 2614 -71 276 -206 809 -299 1186 -241 966 -358
1402 -516 1915 -141 455 -281 849 -376 1057 -243 532 -644 939 -1113 1130
-225 92 -395 124 -616 115 -163 -6 -258 -28 -385 -91 -139 -69 -257 -182 -321
-308 -63 -124 -104 -362 -70 -413 27 -42 86 -29 86 19 0 34 66 184 111 253
106 162 270 238 462 213 207 -26 472 -183 692 -411 226 -234 320 -401 419
-745 67 -235 143 -676 166 -969 12 -154 31 -261 64 -370 14 -43 24 -81 22 -82
-1 -2 -43 50 -93 114 -148 193 -263 330 -426 509 -573 628 -1212 1122 -1947
1506 -391 205 -696 281 -1035 257 -606 -41 -1121 -464 -1329 -1089 -81 -244
-115 -553 -86 -795 54 -461 514 -3890 1045 -7785 566 -4153 831 -6137 914
-6845 33 -280 142 -1207 241 -2060 508 -4353 781 -6493 1124 -8790 177 -1182
467 -2951 517 -3150 58 -227 197 -451 366 -591 59 -48 61 -51 82 -132 130
-507 498 -950 1006 -1211 233 -120 454 -186 709 -210 651 -64 1273 221 1689
771 166 220 305 484 382 728 10 30 73 196 141 368 68 172 139 355 157 405 l32
92 7 -95 c28 -377 163 -674 422 -932 96 -96 249 -219 313 -252 72 -36 162 -7
216 71 18 25 92 129 165 230 782 1082 1425 2318 2217 4258 393 964 530 1322
693 1815 610 1842 1091 3653 1537 5780 36 173 99 466 140 650 41 184 97 443
124 574 28 132 53 241 55 243 2 2 113 -35 247 -83 134 -47 359 -126 499 -174
1438 -497 2870 -1071 4173 -1673 192 -88 222 -105 242 -136 46 -73 429 -727
612 -1046 1738 -3022 3191 -6040 4307 -8945 76 -197 172 -427 216 -516 468
-947 1458 -1513 2395 -1369 284 44 583 167 831 342 99 69 124 82 274 134 474
167 842 422 1095 760 218 291 317 573 385 1089 11 85 26 184 32 220 l12 65 8
-125 c12 -209 63 -355 171 -490 252 -312 728 -378 1075 -150 187 124 303 319
331 560 19 156 66 1368 98 2490 25 870 25 3618 0 4530 -66 2443 -178 4482
-372 6764 -410 4815 -1094 9709 -2171 15521 -97 524 -108 572 -130 593 -41 36
-106 25 -124 -22 -5 -14 3 -150 21 -362 197 -2286 355 -5048 459 -7999 11
-313 21 -598 23 -632 2 -45 -1 -63 -9 -63 -7 0 -49 -12 -94 -26 -44 -15 -84
-23 -88 -20 -3 4 -180 1655 -393 3669 -213 2014 -395 3714 -404 3777 -85 607
-296 1137 -626 1578 -239 318 -538 569 -887 742 -378 188 -750 272 -1197 269
-104 -1 -236 -7 -291 -14z m-12488 -2851 c414 -60 797 -297 1010 -625 l63 -97
248 -174 c234 -165 584 -406 1003 -690 428 -291 1613 -1065 2354 -1538 193
-123 243 -150 255 -142 71 50 127 74 179 79 l57 4 245 -141 c1524 -882 2964
-1653 4235 -2268 204 -98 541 -262 750 -365 430 -210 701 -333 1430 -652 281
-123 607 -266 725 -318 216 -95 350 -148 750 -296 541 -200 713 -272 990 -412
219 -111 530 -305 530 -330 0 -5 46 -59 103 -121 134 -148 174 -199 269 -343
249 -378 395 -827 429 -1320 41 -578 -126 -1172 -453 -1617 -30 -40 -74 -109
-97 -153 -228 -417 -591 -765 -1022 -978 -384 -189 -806 -274 -1226 -248 -292
19 -462 54 -785 161 -263 88 -489 195 -708 338 -201 130 -469 356 -635 535
-66 71 -90 89 -137 107 -32 12 -93 41 -135 65 -43 24 -127 62 -188 86 -60 23
-605 275 -1211 560 -605 285 -1188 558 -1295 607 -633 291 -1925 924 -2484
1217 -1313 688 -2411 1325 -3348 1942 -170 112 -279 178 -282 170 -22 -64
-110 -943 -230 -2302 -70 -787 -108 -1183 -129 -1348 -8 -56 -11 -105 -7 -109
4 -5 112 -35 241 -68 690 -178 1546 -431 2680 -794 1580 -505 3592 -1276 5168
-1980 266 -119 916 -419 1097 -506 83 -40 215 -99 295 -132 365 -150 662 -348
945 -632 463 -464 722 -1011 765 -1613 10 -144 1 -360 -20 -493 -64 -394 -258
-812 -542 -1173 -105 -133 -366 -392 -493 -488 -309 -235 -597 -377 -930 -460
-358 -88 -707 -76 -1057 36 -111 36 -229 90 -434 198 -1926 1016 -4091 1948
-6279 2702 -148 51 -380 132 -515 180 -647 229 -1504 512 -1517 501 -1 -1 -39
-200 -83 -442 -408 -2219 -693 -3460 -1086 -4729 -88 -285 -466 -1416 -549
-1645 -141 -390 -330 -841 -462 -1104 -467 -932 -1026 -1526 -1713 -1820 -418
-179 -940 -255 -1319 -190 -375 63 -683 215 -926 459 -212 211 -332 445 -381
745 -46 277 36 979 187 1610 77 320 205 728 315 1001 43 107 47 124 60 269 30
332 65 513 219 1140 106 432 192 809 345 1520 93 433 153 685 240 1020 192
738 361 1438 685 2825 l184 790 -22 15 c-307 215 -587 497 -773 778 -217 327
-352 688 -405 1082 -17 122 -17 437 0 560 62 464 260 884 574 1217 394 417
800 627 1367 708 63 9 118 20 121 23 7 8 145 842 213 1287 220 1432 353 2675
416 3867 6 111 18 229 30 290 50 243 149 463 286 634 l34 42 -29 64 c-75 164
-156 447 -191 658 -97 598 5 1191 307 1794 73 146 221 393 290 484 248 326
722 526 1198 506 61 -3 156 -12 211 -20z m9417 -11708 c252 -119 511 -236 575
-261 64 -25 152 -66 194 -90 43 -25 82 -45 88 -45 6 0 79 -66 162 -146 231
-222 451 -393 703 -545 l110 -66 7 -59 c4 -33 23 -243 43 -469 19 -225 36
-422 38 -437 3 -26 3 -26 -126 39 -71 35 -178 84 -238 109 -59 24 -274 122
-476 217 -202 96 -436 204 -519 241 l-152 68 -98 182 c-163 303 -482 884 -662
1203 -159 283 -168 301 -138 289 17 -8 237 -111 489 -230z m-13691 -2525 c-9
-50 -104 -457 -108 -460 -2 -2 -4 4 -4 15 0 10 -16 154 -35 318 -19 165 -35
304 -35 309 0 5 42 -30 93 -78 55 -53 91 -94 89 -104z m2194 -11027 c-198
-720 -429 -1499 -767 -2585 -353 -1137 -470 -1513 -505 -1631 -21 -71 -42
-128 -48 -128 -24 0 -202 94 -253 133 -215 166 -306 365 -304 672 0 162 -9
190 -60 183 -18 -3 -29 0 -29 7 0 29 75 279 109 365 23 57 114 223 229 417
342 576 554 958 833 1494 144 277 469 941 469 958 0 4 44 42 98 84 53 41 138
111 187 155 50 43 91 78 93 77 1 -1 -22 -92 -52 -201z"/>
<path d="M13930 30313 c42 -117 74 -243 125 -492 25 -123 51 -231 58 -239 6
-9 57 -52 112 -96 415 -331 1335 -808 2825 -1463 69 -30 204 -93 300 -139 115
-56 271 -119 454 -185 154 -54 281 -98 283 -96 9 10 -664 441 -1392 892 -1487
922 -2073 1315 -2622 1758 -69 56 -136 110 -149 120 -23 18 -23 17 6 -60z"/>
</g>
</svg>
